{"title":"Ice Age (2002) x265","uid":15450064,"size":314465568,"categoryP":"video","categoryS":"movies","magnet":"?xt=urn:btih:764594fcb3175c99a9d47d286096356553f9f00c&amp;dn=Ice+Age+%282002%29+x265&amp;tr=udp%3A%2F%2Ftracker.leechers-paradise.org%3A6969&amp;tr=udp%3A%2F%2Fzer0day.ch%3A1337&amp;tr=udp%3A%2F%2Fopen.demonii.com%3A1337&amp;tr=udp%3A%2F%2Ftracker.coppersurfer.tk%3A6969&amp;tr=udp%3A%2F%2Fexodus.desync.com%3A6969","seeders":1,"leechers":0,"uploader":"Someonewithaslowinternet","files":1,"time":1469932960,"description":"Movie &quot;Ice Age&quot; (2002), coded on x265 with Opus audio. Resolution is 400x740.\r\nSubtitle in English included in the stream.\r\n\r\n---------------------------------------------\r\n\r\nFormat                      : Matroska\r\nFormat version              : Version 4 / Version 2\r\nFile size                   : 300 MiB\r\nDuration                    : 1h 21mn\r\nOverall bit rate            : 517 Kbps\r\nWriting application         : mkvmerge v8.6.1 ('Flying') 32bit\r\nWriting library             : libebml v1.3.3 + libmatroska v1.4.4\r\n\r\nVideo\r\nFormat                      : HEVC\r\nFormat/Info                 : High Efficiency Video Coding\r\nFormat profile              :   @Main\r\nCodec ID                    : V_MPEGH/ISO/HEVC\r\nDuration                    : 1h 21mn\r\nBit rate                    : 451 Kbps\r\nWidth                       : 740 pixels\r\nHeight                      : 400 pixels\r\nDisplay aspect ratio        : 1.85:1\r\nFrame rate mode             : Constant\r\nFrame rate                  : 23.976 (24000/1001) fps\r\nOriginal frame rate         : 23.976 (23976/1000) fps\r\nColor space                 : YUV\r\nChroma subsampling          : 4:2:0\r\nBit depth                   : 8 bits\r\nBits/(Pixel*Frame)          : 0.063\r\nStream size                 : 261 MiB (87%)\r\n\r\nAudio\r\nID                          : 2\r\nFormat                      : Opus\r\nCodec ID                    : A_OPUS\r\nDuration                    : 1h 21mn\r\nBit rate                    : 64.0 Kbps\r\nChannel(s)                  : 2 channels\r\nChannel positions           : Front: L R\r\nSampling rate               : 44.1 KHz\r\nFrame rate                  : 50.000 fps (882 spf)\r\nCompression mode            : Lossy\r\nStream size                 : 37.3 MiB (12%)\r\nDefault                     : Yes\r\nForced                      : No","torrent":{"xt":"urn:btih:764594fcb3175c99a9d47d286096356553f9f00c","amp;dn":"Ice+Age+%282002%29+x265","amp;tr":["udp%3A%2F%2Ftracker.leechers-paradise.org%3A6969","udp%3A%2F%2Fzer0day.ch%3A1337","udp%3A%2F%2Fopen.demonii.com%3A1337","udp%3A%2F%2Ftracker.coppersurfer.tk%3A6969","udp%3A%2F%2Fexodus.desync.com%3A6969"],"infoHash":"764594fcb3175c99a9d47d286096356553f9f00c","infoHashBuffer":{"type":"Buffer","data":[118,69,148,252,179,23,92,153,169,212,125,40,96,150,53,101,83,249,240,12]},"announce":[],"urlList":[]}}